@startuml

title ER диаграмма: CinemaAbyss монолит AS-IS

entity users {
  * id : int <<PK>>
  --
  username : varchar
  email : varchar
}

entity movies {
  * id : int <<PK>>
  --
  title : varchar
  description : text
  rating : float
}

entity movie_genres {
  * movie_id : int <<PK, FK>>
  * genre : varchar <<PK>>
}

entity payments {
  * id : int <<PK>>
  --
  user_id : int <<FK>>
  amount : float
  timestamp : timestamp
}

entity subscriptions {
  * id : int <<PK>>
  --
  user_id : int <<FK>>
  plan_type : varchar
  start_date : date
  end_date : date
}

' Связи между таблицами
users ||--o{ payments : "user_id"
users ||--o{ subscriptions : "user_id"
movies ||--o{ movie_genres : "movie_id"

@enduml
